# xmcd
#
# Track frame offsets:
#	150
#	30150
#	45871
#	65296
#	74246
#	84511
#	129620
#	146505
#	155113
#	167488
#	204594
#	230122
#	251572
#
# Disc length: 3603 seconds
# Revision: 0
# Processed by: cddbd v1.5.2PL0 Copyright (c) Steve Scherf et al.
# Submitted via: dBpowerAMP V12.0
#
DISCID=b30e110d
DTITLE=Godspeed You Black Emperor! - F# A# ∞
DYEAR=1900
DGENRE=AlternRock
TTITLE0=The Dead Flag Blues (Intro)
TTITLE1=Slow Moving Trains
TTITLE2=The Cowboy...
TTITLE3=The Dead Flag Blues (Outro)
TTITLE4=Nothing's Alrite In Our Life...
TTITLE5=The Sad Mafioso...
TTITLE6=Drugs In Tokyo
TTITLE7=Black Helicopter
TTITLE8=Divorce and Fever...
TTITLE9=Dead Metheny...
TTITLE10=Kicking Horse On Brokenhill
TTITLE11=String Loop Manufactured During Downpour...
TTITLE12=J.L.H. Outro
EXTD=
EXTT0=
EXTT1=
EXTT2=
EXTT3=
EXTT4=
EXTT5=
EXTT6=
EXTT7=
EXTT8=
EXTT9=
EXTT10=
EXTT11=
EXTT12=
PLAYORDER=
